<svg xmlns="http://www.w3.org/2000/svg" width="794" height="1600" viewBox="0 0 794 1600" fill="none">
<g clip-path="url(#clip0)">
<path d="M55.641 0H0V1121.84H55.641V0Z" fill="white"/>
<path d="M135.764 0H88.0722V1121.84H135.764V0Z" fill="white"/>
<path d="M217.794 0H174.235V1121.84H217.794V0Z" fill="white"/>
<path d="M300.144 0H260.401V1121.84H300.144V0Z" fill="white"/>
<path d="M382.491 0H346.881V1121.84H382.491V0Z" fill="white"/>
<path d="M464.841 0H433.047V1121.84H464.841V0Z" fill="white"/>
<path d="M546.871 0H519.21V1121.84H546.871V0Z" fill="white"/>
<path d="M629.221 0H605.375V1121.84H629.221V0Z" fill="white"/>
<path d="M711.251 0H691.538V1121.84H711.251V0Z" fill="white"/>
<path d="M793.599 0H777.702V1121.84H793.599V0Z" fill="white"/>
<path d="M793.599 477.807H737.958V1599.65H793.599V477.807Z" fill="white"/>
<path d="M705.529 477.807H657.837V1599.65H705.529V477.807Z" fill="white"/>
<path d="M619.046 477.807H575.487V1599.65H619.046V477.807Z" fill="white"/>
<path d="M533.2 477.807H493.457V1599.65H533.2V477.807Z" fill="white"/>
<path d="M446.717 477.807H411.107V1599.65H446.717V477.807Z" fill="white"/>
<path d="M360.555 477.807H328.76V1599.65H360.555V477.807Z" fill="white"/>
<path d="M274.389 477.807H246.727V1599.65H274.389V477.807Z" fill="white"/>
<path d="M188.226 477.807H164.38V1599.65H188.226V477.807Z" fill="white"/>
<path d="M102.062 477.807H82.3495V1599.65H102.062V477.807Z" fill="white"/>
<path d="M15.8974 477.807H0V1599.65H15.8974V477.807Z" fill="white"/>
</g>
<defs>
<clipPath id="clip0">
<rect width="793.6" height="1600" fill="white"/>
</clipPath>
</defs>
</svg>