<svg width="0" height="0" class="hidden">
    <symbol viewBox="0 0 129 36" fill="none" xmlns="http://www.w3.org/2000/svg" id="logo">
        <path d="M21.0298 8.36364L14.2926 28H7.13352L0.409091 8.36364H6.9929L10.6108 21.8892H10.8153L14.446 8.36364H21.0298ZM31.9602 28.3707C29.8977 28.3707 28.125 27.9489 26.642 27.1051C25.1676 26.2528 24.0298 25.0682 23.2287 23.5511C22.4361 22.0256 22.0398 20.2571 22.0398 18.2457C22.0398 16.2259 22.4361 14.4574 23.2287 12.9403C24.0298 11.4148 25.1676 10.2301 26.642 9.38636C28.125 8.53409 29.8977 8.10795 31.9602 8.10795C34.0227 8.10795 35.7912 8.53409 37.2656 9.38636C38.7486 10.2301 39.8864 11.4148 40.679 12.9403C41.4801 14.4574 41.8807 16.2259 41.8807 18.2457C41.8807 20.2571 41.4801 22.0256 40.679 23.5511C39.8864 25.0682 38.7486 26.2528 37.2656 27.1051C35.7912 27.9489 34.0227 28.3707 31.9602 28.3707ZM31.9986 23.6534C32.7486 23.6534 33.3835 23.4233 33.9034 22.9631C34.4233 22.5028 34.8196 21.8636 35.0923 21.0455C35.3736 20.2273 35.5142 19.2812 35.5142 18.2074C35.5142 17.1165 35.3736 16.1619 35.0923 15.3438C34.8196 14.5256 34.4233 13.8864 33.9034 13.4261C33.3835 12.9659 32.7486 12.7358 31.9986 12.7358C31.223 12.7358 30.5668 12.9659 30.0298 13.4261C29.5014 13.8864 29.0966 14.5256 28.8153 15.3438C28.5426 16.1619 28.4062 17.1165 28.4062 18.2074C28.4062 19.2812 28.5426 20.2273 28.8153 21.0455C29.0966 21.8636 29.5014 22.5028 30.0298 22.9631C30.5668 23.4233 31.223 23.6534 31.9986 23.6534ZM45.0831 35.3636V8.36364H51.2706V11.7259H51.4624C51.718 11.1293 52.0803 10.554 52.549 10C53.0263 9.44602 53.6314 8.99432 54.3643 8.64489C55.1058 8.28693 55.9922 8.10795 57.0234 8.10795C58.3871 8.10795 59.6612 8.46591 60.8459 9.18182C62.0391 9.89773 63.0021 11.0014 63.7351 12.4929C64.468 13.9844 64.8345 15.8849 64.8345 18.1946C64.8345 20.419 64.4808 22.2812 63.7734 23.7812C63.0746 25.2812 62.1286 26.4062 60.9354 27.1562C59.7507 27.9062 58.4339 28.2812 56.9851 28.2812C55.9964 28.2812 55.1399 28.1193 54.4155 27.7955C53.6911 27.4716 53.0817 27.0455 52.5874 26.517C52.1016 25.9886 51.7266 25.4219 51.4624 24.8168H51.3345V35.3636H45.0831ZM51.2067 18.1818C51.2067 19.2386 51.3473 20.1591 51.6286 20.9432C51.9183 21.7273 52.3317 22.3366 52.8686 22.7713C53.4141 23.1974 54.0661 23.4105 54.8246 23.4105C55.5916 23.4105 56.2436 23.1974 56.7805 22.7713C57.3175 22.3366 57.7223 21.7273 57.995 20.9432C58.2763 20.1591 58.4169 19.2386 58.4169 18.1818C58.4169 17.125 58.2763 16.2088 57.995 15.4332C57.7223 14.6577 57.3175 14.0568 56.7805 13.6307C56.2521 13.2045 55.6001 12.9915 54.8246 12.9915C54.0575 12.9915 53.4055 13.2003 52.8686 13.6179C52.3317 14.0355 51.9183 14.6321 51.6286 15.4077C51.3473 16.1832 51.2067 17.108 51.2067 18.1818ZM85.2539 14.3594L79.5139 14.5128C79.4542 14.1037 79.2923 13.7415 79.0281 13.4261C78.7638 13.1023 78.4187 12.8509 77.9925 12.6719C77.5749 12.4844 77.0891 12.3906 76.5352 12.3906C75.8107 12.3906 75.1928 12.5355 74.6815 12.8253C74.1786 13.1151 73.9315 13.5071 73.94 14.0014C73.9315 14.3849 74.0849 14.7173 74.4002 14.9986C74.7241 15.2798 75.2994 15.5057 76.1261 15.6761L79.9102 16.392C81.8704 16.767 83.3278 17.3892 84.2823 18.2585C85.2454 19.1278 85.7312 20.2784 85.7397 21.7102C85.7312 23.0568 85.3306 24.2287 84.538 25.2259C83.7539 26.223 82.68 26.9986 81.3164 27.5526C79.9528 28.098 78.3931 28.3707 76.6374 28.3707C73.8335 28.3707 71.6218 27.7955 70.0025 26.6449C68.3917 25.4858 67.4712 23.9347 67.2411 21.9915L73.4158 21.8381C73.5522 22.554 73.9059 23.0994 74.4769 23.4744C75.0479 23.8494 75.7766 24.0369 76.663 24.0369C77.4641 24.0369 78.1161 23.8878 78.619 23.5895C79.1218 23.2912 79.3775 22.8949 79.386 22.4006C79.3775 21.9574 79.1815 21.6037 78.7979 21.3395C78.4144 21.0668 77.8136 20.8537 76.9954 20.7003L73.5692 20.0483C71.6005 19.6903 70.1346 19.0298 69.1715 18.0668C68.2085 17.0952 67.7312 15.8594 67.7397 14.3594C67.7312 13.0469 68.0806 11.9261 68.788 10.9972C69.4954 10.0597 70.5011 9.34375 71.805 8.84943C73.109 8.35511 74.6474 8.10795 76.4201 8.10795C79.0792 8.10795 81.1758 8.66619 82.7099 9.78267C84.244 10.8906 85.092 12.4162 85.2539 14.3594ZM88.8175 28V8.36364H95.0689V28H88.8175ZM91.9496 6.07528C91.0717 6.07528 90.3175 5.78551 89.6868 5.20597C89.0561 4.6179 88.7408 3.91051 88.7408 3.08381C88.7408 2.26562 89.0561 1.56676 89.6868 0.987216C90.3175 0.399147 91.0717 0.105112 91.9496 0.105112C92.8359 0.105112 93.5902 0.399147 94.2124 0.987216C94.843 1.56676 95.1584 2.26562 95.1584 3.08381C95.1584 3.91051 94.843 4.6179 94.2124 5.20597C93.5902 5.78551 92.8359 6.07528 91.9496 6.07528ZM99.0479 28V8.36364H104.993V11.9688H105.21C105.619 10.7756 106.309 9.83381 107.281 9.14347C108.252 8.45312 109.412 8.10795 110.758 8.10795C112.122 8.10795 113.289 8.45739 114.261 9.15625C115.233 9.85511 115.85 10.7926 116.115 11.9688H116.319C116.686 10.8011 117.402 9.8679 118.467 9.16903C119.532 8.46165 120.789 8.10795 122.238 8.10795C124.096 8.10795 125.605 8.70455 126.764 9.89773C127.923 11.0824 128.502 12.7102 128.502 14.7812V28H122.251V16.2131C122.251 15.233 122 14.4872 121.497 13.9759C120.994 13.456 120.342 13.196 119.541 13.196C118.68 13.196 118.002 13.4773 117.508 14.0398C117.022 14.5937 116.779 15.3395 116.779 16.277V28H110.771V16.1491C110.771 15.2372 110.524 14.517 110.029 13.9886C109.535 13.4602 108.883 13.196 108.074 13.196C107.528 13.196 107.047 13.3281 106.629 13.5923C106.211 13.848 105.883 14.2145 105.645 14.6918C105.414 15.169 105.299 15.7315 105.299 16.3793V28H99.0479Z" fill="#1D1D1D"/>
    </symbol>
    <symbol viewBox="0 0 25 21" fill="none" xmlns="http://www.w3.org/2000/svg" id="cart">
        <path d="M23.048 3.21054H5.47831C5.16279 3.21054 4.92614 3.4992 4.98802 3.8086L6.99855 13.8612C7.04529 14.0949 7.2505 14.2632 7.48884 14.2632H21.0375C21.2758 14.2632 21.481 14.0949 21.5277 13.8612L23.5383 3.8086C23.6002 3.4992 23.3635 3.21054 23.048 3.21054Z" stroke="#1D1D1D" stroke-width="2" stroke-linecap="round"/>
        <path d="M6 18C6 19.1046 6.89543 20 8 20C9.10457 20 10 19.1046 10 18C10 16.8954 9.10457 16 8 16C6.89543 16 6 16.8954 6 18Z" stroke="#1D1D1D" stroke-width="2"/>
        <path d="M18 18C18 19.1046 18.8954 20 20 20C21.1046 20 22 19.1046 22 18C22 16.8954 21.1046 16 20 16C18.8954 16 18 16.8954 18 18Z" stroke="#1D1D1D" stroke-width="2"/>
        <path d="M4.86842 3.21053L2.80434 1.14645C2.71057 1.05268 2.5834 1 2.45079 1H1" stroke="#1D1D1D" stroke-width="2" stroke-linecap="round"/>
    </symbol>
    <symbol viewBox="0 0 23 18" fill="none" xmlns="http://www.w3.org/2000/svg" id="menu">
        <path d="M1.65796 1H21.658" stroke="#1D1D1D" stroke-width="2" stroke-linecap="round"/>
        <path d="M1.65796 9H21.658" stroke="#1D1D1D" stroke-width="2" stroke-linecap="round"/>
        <path d="M1.65796 17H21.658" stroke="#1D1D1D" stroke-width="2" stroke-linecap="round"/>
    </symbol>
    <symbol viewBox="0 0 50 50" fill="none" xmlns="http://www.w3.org/2000/svg" id="facebook">
        <path d="M50 0H0V50H50V0Z" fill="#1877F2"/>
        <path d="M37.5 25C37.5 18.125 31.875 12.5 25 12.5C18.125 12.5 12.5 18.125 12.5 25C12.5 31.25 17.0312 36.4062 22.9688 37.3438V28.5937H19.8437V25H22.9688V22.1875C22.9688 19.0625 24.8438 17.3438 27.6563 17.3438C29.0625 17.3438 30.4688 17.6563 30.4688 17.6563V20.7812H28.9062C27.3438 20.7812 26.875 21.7188 26.875 22.6562V25H30.3125L29.6875 28.5937H26.7188V37.5C32.9688 36.5625 37.5 31.25 37.5 25Z" fill="white"/>
    </symbol>
    <symbol viewBox="0 0 15 13" fill="none" xmlns="http://www.w3.org/2000/svg" id="filters">
        <path d="M15 3.21521H5.83333M1.45556 3.21521H0H1.45556Z" stroke="black" stroke-width="1.5"/>
        <path d="M3.75556 1.23962C3.51488 1.24022 3.2768 1.29191 3.05556 1.3916C2.81879 1.48917 2.60332 1.63632 2.42222 1.82413C2.24646 2.00566 2.11002 2.22498 2.02223 2.46709C1.9245 2.70709 1.87531 2.96586 1.87778 3.22695C1.87522 3.48426 1.92444 3.73924 2.02223 3.97512C2.11002 4.21722 2.24646 4.43654 2.42222 4.61807C2.60488 4.80094 2.82013 4.94396 3.05556 5.03892C3.28439 5.13806 3.53038 5.18584 3.77778 5.1792C4.02102 5.17911 4.26214 5.13154 4.48889 5.03892C4.71732 4.93779 4.92488 4.79089 5.1 4.60638C5.27576 4.42485 5.4122 4.20553 5.5 3.96342C5.59778 3.72755 5.64701 3.47257 5.64445 3.21526C5.64692 2.95417 5.59772 2.6954 5.5 2.4554C5.4014 2.21703 5.25774 2.00226 5.07778 1.82413C4.90222 1.64312 4.69459 1.50013 4.46667 1.40329C4.243 1.29739 4.00082 1.24165 3.75556 1.23962V1.23962Z" stroke="black" stroke-width="1.5"/>
        <path d="M0 9.78516H8.95556M13.1222 9.78516H15H13.1222Z" stroke="black" stroke-width="1.5"/>
        <path d="M11.2556 7.80945C11.0079 7.81236 10.763 7.8639 10.5333 7.96142C10.3049 8.06255 10.0973 8.20945 9.92222 8.39395C9.57843 8.76742 9.38361 9.26521 9.37777 9.78508C9.37531 10.0462 9.4245 10.3049 9.52222 10.5449C9.61294 10.7855 9.74901 11.0042 9.92222 11.1879C10.0978 11.3689 10.3054 11.5119 10.5333 11.6087C10.7603 11.7087 11.0039 11.7602 11.25 11.7602C11.4961 11.7602 11.7397 11.7087 11.9667 11.6087C12.1946 11.5119 12.4022 11.3689 12.5778 11.1879C12.751 11.0042 12.8871 10.7855 12.9778 10.5449C13.0755 10.3049 13.1247 10.0462 13.1222 9.78508C13.1164 9.26521 12.9216 8.76742 12.5778 8.39395C12.4027 8.20945 12.1951 8.06255 11.9667 7.96142C11.7406 7.86506 11.4995 7.81353 11.2556 7.80945V7.80945Z" stroke="black" stroke-width="1.5"/>
    </symbol>
    <symbol viewBox="0 0 15 15" fill="none" xmlns="http://www.w3.org/2000/svg" id="star">
        <g clip-path="url(#clip0_154_3136)"><path d="M3.16054 14.0126C2.82279 14.1858 2.43954 13.8822 2.50779 13.4946L3.23404 9.35582L0.151417 6.41932C-0.136458 6.14457 0.0131675 5.64232 0.399042 5.58807L4.68479 4.97907L6.59579 1.19295C6.76817 0.851699 7.23454 0.851699 7.40692 1.19295L9.31792 4.97907L13.6037 5.58807C13.9895 5.64232 14.1392 6.14457 13.8504 6.41932L10.7687 9.35582L11.4949 13.4946C11.5632 13.8822 11.1799 14.1858 10.8422 14.0126L7.00004 12.0386L3.15967 14.0126H3.16054Z" fill="#0047F2"/></g>
        <defs><clipPath id="clip0_154_3136"><rect width="14" height="14" fill="white" transform="translate(0 0.5)"/></clipPath></defs>
    </symbol>
    <symbol viewBox="0 0 30 38" fill="none" xmlns="http://www.w3.org/2000/svg" id="mouse-click">
        <path d="M10.8767 0.0500965C8.92012 0.30632 7.16782 0.899841 5.62764 1.8299C0.394129 4.99407 -1.48371 11.3075 1.25079 16.4932C2.74379 19.3422 5.24239 21.3714 8.49589 22.3894C9.86294 22.8142 9.77637 22.8582 9.77637 21.8108V20.9392L9.13223 20.7415C7.50548 20.2436 6.14623 19.4596 4.94411 18.3319C2.91652 16.4274 1.90313 14.142 1.90313 11.4761C1.91093 9.82102 2.233 8.5464 3.01088 7.09625C5.10905 3.21427 9.73698 1.09029 14.2948 1.91785C18.5539 2.67964 21.9325 5.90959 22.6242 9.86461C22.7736 10.7583 22.7736 12.2815 22.6164 13.124C22.4515 14.0323 22.0273 15.1822 21.5477 16.017L21.1546 16.7203L21.7992 17.2989C22.1528 17.6213 22.4671 17.8921 22.4987 17.907C22.5775 17.9292 23.2372 16.889 23.5597 16.2151C23.8895 15.5558 24.251 14.5084 24.4397 13.6736C24.5575 13.1684 24.5891 12.7435 24.5891 11.4398C24.5813 9.96022 24.5657 9.76251 24.3769 9.0229C23.819 6.81823 22.7346 4.96539 21.0923 3.41963C19.34 1.76412 17.0929 0.636351 14.6722 0.196947C13.7056 0.020649 11.7096 -0.05966 10.8767 0.0500965Z" fill="white"/>
        <path d="M11.6631 5.33824C9.31343 5.50651 6.97977 7.13984 6.1547 9.19804C5.80104 10.0841 5.73047 10.4577 5.73047 11.4758C5.73826 12.5159 5.82483 12.9844 6.19408 13.8342C6.75206 15.116 7.99356 16.3536 9.36882 16.9983L9.77745 17.1888V16.2147V15.2407L9.38441 14.9405C8.62211 14.3619 8.11131 13.6586 7.76586 12.7213C7.6559 12.4211 7.61652 12.106 7.61652 11.4761C7.61652 10.5679 7.71088 10.2015 8.13511 9.4252C8.71647 8.34868 9.87182 7.49893 11.1527 7.19146C11.7501 7.05226 12.9128 7.05226 13.5102 7.19146C14.3586 7.40371 14.956 7.72609 15.6395 8.36321C16.1187 8.80262 16.3468 9.08829 16.5667 9.49863C17.0541 10.4363 17.1953 11.4031 16.9754 12.3549L16.8654 12.8311L17.5649 13.4904C18.1307 14.025 18.2801 14.1275 18.3428 14.0395C18.6493 13.6001 18.9714 12.2597 18.9714 11.4394C18.9714 9.95983 18.2956 8.39266 17.1797 7.28631C15.7019 5.82889 13.8552 5.17724 11.6631 5.33824Z" fill="white"/>
        <path d="M11.7489 10.9855C11.6389 11.088 11.6233 33.5664 11.7333 33.6249C11.7727 33.6544 11.851 33.6544 11.9142 33.6322C11.9692 33.6104 13.1163 32.5484 14.4522 31.2665C15.7881 29.9919 16.9668 28.9009 17.0612 28.8496C17.2183 28.7689 17.2655 28.7762 17.4226 28.923C17.517 29.0183 18.4204 30.9006 19.4264 33.1198C21.2645 37.1627 21.4376 37.4775 21.8068 37.4775C21.8934 37.4775 22.6713 37.1991 23.5514 36.8549C25.1071 36.2396 25.4924 36.0201 25.4924 35.7417C25.4924 35.6759 24.6907 33.8739 23.7167 31.7354C21.4458 26.7696 21.6263 27.2018 21.7679 27.0113C21.8856 26.8648 21.9488 26.8576 23.3946 26.8576C24.2275 26.8576 25.8854 26.8358 27.0879 26.8063C29.2411 26.7624 29.2723 26.7551 29.2489 26.6086C29.2255 26.4621 12.1739 11.0226 11.9462 10.9419C11.89 10.9193 11.7961 10.9415 11.7489 10.9855Z" fill="white"/>
    </symbol>
    <symbol viewBox="0 0 48 48" fill="#fff" xmlns="http://www.w3.org/2000/svg" id="paint-bucket">
        <path d="M12.75 2.15 14.9 0l17.4 17.4q1.15 1.15 1.15 2.825 0 1.675-1.15 2.825l-8.9 8.9q-1.15 1.15-2.7 1.15-1.55 0-2.7-1.15l-8.9-8.9q-1.15-1.15-1.15-2.825 0-1.675 1.15-2.825l9.45-9.45Zm7.95 7.95-9.95 9.95h19.9Zm16.9 23.85q-1.5 0-2.55-1.05Q34 31.85 34 30.35q0-.85.4-1.85t1.1-2.05q.4-.65.975-1.4.575-.75 1.125-1.4.55.65 1.125 1.4.575.75.975 1.4.7 1.05 1.1 2.05.4 1 .4 1.85 0 1.5-1.05 2.55-1.05 1.05-2.55 1.05ZM4 48.05V42h40v6.05Z"/>
    </symbol>
    <symbol viewBox="0 0 48 48" fill="#fff" xmlns="http://www.w3.org/2000/svg" id="paint-palette">
        <path d="M24 44q-4.1 0-7.75-1.575-3.65-1.575-6.375-4.3-2.725-2.725-4.3-6.375Q4 28.1 4 24q0-4.25 1.6-7.9 1.6-3.65 4.375-6.35 2.775-2.7 6.5-4.225Q20.2 4 24.45 4q3.95 0 7.5 1.325T38.175 9q2.675 2.35 4.25 5.575Q44 17.8 44 21.65q0 5.4-3.15 8.525T32.5 33.3h-3.75q-.9 0-1.55.7t-.65 1.55q0 1.35.725 2.3.725.95.725 2.2 0 1.9-1.05 2.925T24 44Zm0-20Zm-11.65 1.3q1 0 1.75-.75t.75-1.75q0-1-.75-1.75t-1.75-.75q-1 0-1.75.75t-.75 1.75q0 1 .75 1.75t1.75.75Zm6.3-8.5q1 0 1.75-.75t.75-1.75q0-1-.75-1.75t-1.75-.75q-1 0-1.75.75t-.75 1.75q0 1 .75 1.75t1.75.75Zm10.7 0q1 0 1.75-.75t.75-1.75q0-1-.75-1.75t-1.75-.75q-1 0-1.75.75t-.75 1.75q0 1 .75 1.75t1.75.75Zm6.55 8.5q1 0 1.75-.75t.75-1.75q0-1-.75-1.75t-1.75-.75q-1 0-1.75.75t-.75 1.75q0 1 .75 1.75t1.75.75ZM24 41q.55 0 .775-.225.225-.225.225-.725 0-.7-.725-1.3-.725-.6-.725-2.65 0-2.3 1.5-4.05t3.8-1.75h3.65q3.8 0 6.15-2.225Q41 25.85 41 21.65q0-6.6-5-10.625T24.45 7q-7.3 0-12.375 4.925T7 24q0 7.05 4.975 12.025Q16.95 41 24 41Z"/>
    </symbol>
    <symbol viewBox="0 0 48 48" fill="#fff" xmlns="http://www.w3.org/2000/svg" id="paint-roller">
        <path d="M29.15 46H22q-.7 0-1.2-.5t-.5-1.2V31.8q0-.7.5-1.2t1.2-.5h2.05v-6.65H7q-1.25 0-2.125-.875T4 20.45V10.8q0-1.25.875-2.125T7 7.8h4.15V5.7q0-.7.5-1.2t1.2-.5H38.3q.7 0 1.2.5t.5 1.2v7.6q0 .7-.5 1.2t-1.2.5H12.85q-.7 0-1.2-.5t-.5-1.2v-2.5H7v9.65h17.05q1.25 0 2.125.875t.875 2.125v6.65h2.1q.7 0 1.2.5t.5 1.2v12.5q0 .7-.5 1.2t-1.2.5Zm-15-39v5Zm9.15 36h4.55v-9.9H23.3Zm-9.15-31H37V7H14.15Zm9.15 31h4.55-4.55Z"/>
    </symbol>
    <symbol viewBox="0 0 48 48" fill="#fff" xmlns="http://www.w3.org/2000/svg" id="paint-brush">
        <path d="M21.85 44q-1.2 0-2.1-.875-.9-.875-.9-2.125V31H11q-1.2 0-2.1-.9Q8 29.2 8 28V12.85q0-2.75 1.975-4.8T14.75 6H40v22q0 1.2-.9 2.1-.9.9-2.1.9h-7.85v10q0 1.25-.9 2.125t-2.1.875ZM11 20.3h26V9h-2.8v8.55h-3V9h-3.55v4.25h-3V9h-9.9q-1.6 0-2.675 1.15Q11 11.3 11 12.85Zm0 7.7h26v-4.7H11V28Zm0-4.7V28Z"/>
    </symbol>
    <symbol viewBox="0 0 20 19" fill="none" xmlns="http://www.w3.org/2000/svg" id="search">
        <circle cx="9.15796" cy="8.5" r="7.5" stroke="black" stroke-width="2"/>
        <path d="M14.658 14L18.658 18" stroke="black" stroke-width="2" stroke-linecap="round"/>
    </symbol>
</svg>